<svg id="svg" xmlns="http://www.w3.org/2000/svg" xmlns:xlink="http://www.w3.org/1999/xlink" width="400" height="400" viewBox="0, 0, 400,400" version="1.1"><g id="svgg"><path id="path0" d="M268.751 42.997 C 234.403 54.696,194.291 87.640,153.655 137.525 C 147.398 145.207,145.098 146.657,137.466 147.732 C 121.569 149.971,64.386 161.976,40.952 167.994 C 28.381 171.222,16.167 173.754,13.810 173.620 C 10.320 173.421,9.524 174.374,9.524 178.751 C 9.524 186.614,9.276 186.607,36.676 179.586 C 68.623 171.400,126.909 159.608,131.648 160.372 C 134.617 160.850,133.195 163.300,123.572 174.286 C 103.654 197.025,94.989 209.677,95.620 215.099 C 96.338 221.267,104.762 223.506,104.762 217.529 C 104.762 214.044,112.425 203.755,134.286 177.888 C 139.524 171.690,145.663 164.253,147.928 161.361 C 154.348 153.163,248.421 141.827,244.208 149.759 C 238.626 160.267,189.073 266.365,170.925 306.667 C 153.042 346.379,135.858 391.731,137.914 393.787 C 139.525 395.398,159.579 357.878,171.645 330.677 C 190.431 288.325,234.300 194.196,247.859 167.143 L 259.077 144.762 268.251 144.762 C 276.380 144.762,314.079 139.960,319.048 138.291 C 322.719 137.058,297.934 134.483,281.453 134.385 C 261.264 134.265,260.311 140.106,289.938 82.381 L 312.668 38.095 297.763 38.144 C 286.926 38.179,279.006 39.504,268.751 42.997 M294.921 49.199 C 294.571 50.068,284.641 69.696,272.853 92.816 L 251.420 134.852 237.615 136.083 C 210.930 138.460,168.546 143.071,166.190 143.853 C 153.792 147.965,202.194 96.987,231.429 75.142 C 253.843 58.393,298.569 40.118,294.921 49.199 M298.684 159.799 C 268.829 183.875,252.088 202.057,257.237 204.812 C 261.515 207.102,262.915 206.198,281.839 188.942 C 292.875 178.878,304.278 168.502,307.178 165.884 C 312.390 161.180,312.518 161.164,318.253 164.552 C 321.670 166.571,328.345 168.101,334.490 168.276 C 343.934 168.543,344.825 168.933,343.889 172.381 C 341.306 181.898,340.596 190.984,341.806 199.055 L 343.119 207.809 352.988 207.238 C 362.299 206.699,362.893 206.355,363.486 201.160 C 364.078 195.971,363.786 195.719,358.420 196.792 C 348.417 198.793,348.353 186.495,358.269 167.840 C 364.824 155.506,364.369 154.322,353.851 156.356 C 338.408 159.342,328.662 158.442,321.134 153.333 C 312.404 147.409,314.962 146.672,298.684 159.799 M314.286 236.371 C 297.000 238.287,277.286 240.102,270.476 240.404 C 258.686 240.926,258.095 241.180,258.095 245.714 C 258.095 252.323,261.578 252.461,309.273 247.745 C 365.260 242.208,363.810 242.495,363.810 236.975 C 363.810 231.310,360.308 231.268,314.286 236.371 " stroke="none" fill="#000000" fill-rule="evenodd"></path></g></svg>